#define AlignLeft_width 32
#define AlignLeft_height 32
static char AlignLeft_bits[] = {
 0x00,0x00,0x00,0x00,0x02,0x00,0x00,0x00,0x02,0x00,0x00,0x00,0xfe,0xff,0x0f,
 0x00,0x02,0x00,0x08,0x00,0x02,0x00,0x08,0x00,0x02,0x00,0x08,0x00,0x02,0x00,
 0x08,0x00,0x02,0x00,0x08,0x00,0x02,0x00,0x08,0x00,0x02,0x00,0x08,0x00,0x02,
 0x00,0x08,0x00,0xfe,0xff,0x0f,0x00,0x02,0x00,0x00,0x00,0x02,0x00,0x00,0x00,
 0x02,0x80,0x00,0x00,0x02,0x60,0x03,0x00,0x02,0x18,0x0c,0x00,0x02,0x06,0x30,
 0x00,0x82,0x01,0xc0,0x00,0x62,0x00,0x00,0x03,0x1a,0x00,0x00,0x0c,0x06,0x00,
 0x00,0x30,0x1a,0x00,0x00,0x0c,0x62,0x00,0x00,0x03,0x82,0x01,0xc0,0x00,0x02,
 0x06,0x30,0x00,0x02,0x18,0x0c,0x00,0x02,0x60,0x03,0x00,0x02,0x80,0x00,0x00,
 0x02,0x00,0x00,0x00,0x00,0x00,0x00,0x00};
