#define AlignCenterY_width 32
#define AlignCenterY_height 32
static unsigned char AlignCenterY_bits[] = {
  0x00, 0x00, 0x00, 0x00, 0x00, 0x00, 0x40, 0x00, 0x00, 0x00, 0x40, 0x00,
  0x00, 0x00, 0xa0, 0x00, 0x00, 0x00, 0xa0, 0x00, 0x00, 0x00, 0x10, 0x01,
  0xf8, 0x1f, 0x10, 0x01, 0x08, 0x10, 0x08, 0x02, 0x08, 0x10, 0x08, 0x02,
  0x08, 0x10, 0x04, 0x04, 0x08, 0x10, 0x04, 0x04, 0x08, 0x10, 0x02, 0x08,
  0x08, 0x10, 0x02, 0x08, 0x08, 0x10, 0x01, 0x10, 0x08, 0x10, 0x01, 0x10,
  0xfe, 0xff, 0xff, 0x7f, 0x08, 0x10, 0x01, 0x10, 0x08, 0x10, 0x01, 0x10,
  0x08, 0x10, 0x02, 0x08, 0x08, 0x10, 0x02, 0x08, 0x08, 0x10, 0x04, 0x04,
  0x08, 0x10, 0x04, 0x04, 0x08, 0x10, 0x08, 0x02, 0x08, 0x10, 0x08, 0x02,
  0xf8, 0x1f, 0x10, 0x01, 0x00, 0x00, 0x10, 0x01, 0x00, 0x00, 0xa0, 0x00,
  0x00, 0x00, 0xa0, 0x00, 0x00, 0x00, 0x40, 0x00, 0x00, 0x00, 0x40, 0x00,
  0x00, 0x00, 0x00, 0x00, 0x00, 0x00, 0x00, 0x00, };
