#define CapButt_width 16
#define CapButt_height 16
static unsigned char CapButt_bits[] = {
  0x80, 0x00, 0x80, 0x00, 0x00, 0x00, 0x80, 0x5f, 0x80, 0x00, 0x80, 0x00,
  0x80, 0x00, 0x83, 0x5f, 0x80, 0x00, 0x80, 0x00, 0x80, 0x00, 0x80, 0x5f,
  0x00, 0x00, 0x80, 0x00, 0x80, 0x00, 0x00, 0x00, };
