#define CurUp_width 16
#define CurUp_height 16
#define CurUp_x_hot 8
#define CurUp_y_hot 8
static unsigned char CurUp_bits[] = {
  0x00, 0x00, 0x80, 0x01, 0xc0, 0x03, 0xe0, 0x07, 0xb0, 0x0d, 0x80, 0x01,
  0x80, 0x01, 0x80, 0x01, 0x80, 0x01, 0x80, 0x01, 0x80, 0x01, 0x80, 0x01,
  0x80, 0x01, 0x80, 0x01, 0x00, 0x00, 0x00, 0x00, };
