#define CurZoom_width 16
#define CurZoom_height 16
#define CurZoom_x_hot 5
#define CurZoom_y_hot 5
static unsigned char CurZoom_bits[] = {
   0x00, 0x00, 0xf8, 0x00, 0x04, 0x01, 0x02, 0x02, 0x02, 0x02, 0x02, 0x02,
   0x02, 0x02, 0x02, 0x02, 0x04, 0x07, 0xf8, 0x0b, 0x00, 0x17, 0x00, 0x2e,
   0x00, 0x5c, 0x00, 0x78, 0x00, 0x70, 0x00, 0x00};
