#define SelectionMode_width 24
#define SelectionMode_height 24
static unsigned char SelectionMode_bits[] = {
   0x00, 0x00, 0x00, 0x8e, 0xe3, 0x00, 0x00, 0x00, 0x00, 0x00, 0x00, 0x00,
   0x00, 0x00, 0x01, 0x02, 0x00, 0x01, 0x02, 0x00, 0x01, 0x02, 0x00, 0x00,
   0x00, 0x00, 0x00, 0x00, 0x00, 0x00, 0x00, 0x00, 0x01, 0x02, 0x00, 0x01,
   0x02, 0x00, 0x01, 0x02, 0x00, 0x00, 0x00, 0x00, 0x00, 0x00, 0x00, 0x00,
   0x1c, 0xc7, 0x03, 0x00, 0x00, 0x0f, 0x00, 0x00, 0x3e, 0x00, 0x00, 0x7e,
   0x00, 0x00, 0x3c, 0x00, 0x00, 0x7c, 0x00, 0x00, 0xe8, 0x00, 0x00, 0x40};
