#define ShearLR_width 16
#define ShearLR_height 16
static unsigned char ShearLR_bits[] = {
  0x00, 0x00, 0x00, 0x00, 0x00, 0x04, 0x00, 0x0c, 0x00, 0x1c, 0xfc, 0x3f,
  0xfc, 0x7f, 0x00, 0x00, 0x00, 0x00, 0xfe, 0x3f, 0xfc, 0x3f, 0x38, 0x00,
  0x30, 0x00, 0x20, 0x00, 0x00, 0x00, 0x00, 0x00, };
