#define TurnBR_width 16
#define TurnBR_height 16
static unsigned char TurnBR_bits[] = {
  0x00, 0x0c, 0x00, 0x1e, 0x00, 0x3f, 0x80, 0x7f, 0x00, 0x0c, 0x00, 0x0e,
  0x00, 0x06, 0x08, 0x07, 0x8c, 0x03, 0xee, 0x01, 0xff, 0x00, 0x3f, 0x00,
  0x0e, 0x00, 0x0c, 0x00, 0x08, 0x00, 0x00, 0x00, };
