/* Created with The GIMP - LINUX */
#define MiniPrintOn_width 12
#define MiniPrintOn_height 12
static unsigned char MiniPrintOn_bits[] = {
   0x00, 0x00, 0x7c, 0x00, 0xc4, 0x00, 0x44, 0x01, 0xd4, 0x03, 0x04, 0x02,
   0xf4, 0x02, 0x04, 0x02, 0xf4, 0x02, 0x04, 0x02, 0xfc, 0x03, 0x00, 0x00 };
