/* Created with The GIMP - LINUX */
#define MiniLockClosed_width 12
#define MiniLockClosed_height 12
static unsigned char MiniLockClosed_bits[] = {
   0x00, 0x00, 0xf0, 0x00, 0xf8, 0x01, 0x98, 0x01, 0x98, 0x01, 0xfc, 0x03,
   0xfc, 0x03, 0xfc, 0x03, 0x0c, 0x03, 0xfc, 0x03, 0xfc, 0x03, 0x00, 0x00 };
