#define ArrArrLeft_width 10
#define ArrArrLeft_height 10
static unsigned char ArrArrLeft_bits[] = {
  0x10, 0x01, 0xb8, 0x03, 0xdc, 0x01, 0xee, 0x00, 0x77, 0x00, 0x77, 0x00,
  0xee, 0x00, 0xdc, 0x01, 0xb8, 0x03, 0x10, 0x01, };
