#define ArrLeft_width 10
#define ArrLeft_height 10
static unsigned char ArrLeft_bits[] = {
  0x20, 0x00, 0x70, 0x00, 0x38, 0x00, 0x1c, 0x00, 0x0e, 0x00, 0x0e, 0x00,
  0x1c, 0x00, 0x38, 0x00, 0x70, 0x00, 0x20, 0x00, };
