#define ArrRight_width 10
#define ArrRight_height 10
static unsigned char ArrRight_bits[] = {
  0x08, 0x00, 0x1c, 0x00, 0x38, 0x00, 0x70, 0x00, 0xe0, 0x00, 0xe0, 0x00,
  0x70, 0x00, 0x38, 0x00, 0x1c, 0x00, 0x08, 0x00, };
