#define gradient_linear_width 24
#define gradient_linear_height 24
static char gradient_linear_bits[] = {
 0x00,0x00,0x00,0x00,0x00,0x00,0x00,0x00,0x00,0x00,0x00,0x00,0xaa,0x54,0x15,
 0x00,0x01,0x40,0x12,0x24,0x09,0x48,0x49,0x52,0x92,0x24,0x89,0x4a,0x4a,0x52,
 0x52,0xa9,0xaa,0xaa,0xaa,0x4a,0x55,0x55,0x55,0xaa,0xaa,0xaa,0x6d,0x55,0x6d,
 0xb6,0xee,0xb6,0xed,0xb5,0x6d,0xb7,0x6e,0xdb,0xdd,0xfb,0x6f,0xf7,0xbe,0xfa,
 0xff,0xf7,0xdf,0xdd,0xfe,0xff,0xff,0xdf,0xfd,0xff,0xff,0xff};
