#define gradient_conical_width 24
#define gradient_conical_height 24
static char gradient_conical_bits[] = {
 0x00,0x00,0x00,0x4a,0x00,0x54,0x00,0x00,0x81,0x2a,0x41,0x50,0x00,0x00,0x0a,
 0x55,0x01,0xa1,0x02,0x20,0x14,0x59,0x02,0xa5,0x22,0x41,0x54,0x9a,0x90,0x4a,
 0xa5,0x42,0xa9,0x5a,0xb5,0x56,0x55,0x5f,0x55,0xaa,0xfd,0xb5,0x7d,0x5f,0x6b,
 0xab,0xff,0xbd,0xf6,0xbe,0xab,0xbb,0xff,0xde,0xed,0xff,0x6b,0xfb,0xfd,0xde,
 0xaf,0xdf,0x7b,0xfa,0xff,0xdf,0xef,0xff,0x76,0x7b,0xff,0xdf};
