/* Created with The GIMP */
#define hand_pencil_width 48
#define hand_pencil_height 48
static unsigned char hand_pencil_bits[] = {
   0x00, 0x00, 0x00, 0x00, 0x00, 0x00, 0x00, 0x00, 0x00, 0x00, 0x00, 0x00,
   0x00, 0x00, 0x00, 0x00, 0x00, 0x00, 0x00, 0x00, 0x00, 0x00, 0x00, 0x00,
   0x00, 0x00, 0x00, 0x3c, 0x00, 0x00, 0x00, 0x00, 0x00, 0x66, 0x00, 0x00,
   0x00, 0x00, 0x7c, 0xc2, 0x00, 0x00, 0x00, 0x70, 0xc4, 0xc3, 0x0e, 0x00,
   0x00, 0xd8, 0x86, 0xc3, 0x3e, 0x00, 0x00, 0x88, 0x86, 0xc1, 0x23, 0x00,
   0x00, 0x88, 0x82, 0x41, 0xf1, 0x03, 0x00, 0x8c, 0x82, 0x41, 0x5f, 0x06,
   0x00, 0x8c, 0x82, 0xc1, 0x43, 0x04, 0x00, 0x8c, 0xc2, 0xf1, 0x40, 0x0c,
   0x00, 0x8c, 0xc2, 0x1f, 0x40, 0x08, 0x00, 0x8c, 0xc3, 0x03, 0x40, 0x1a,
   0x00, 0x8c, 0xf3, 0x00, 0xf8, 0x12, 0x00, 0x8c, 0x1f, 0x00, 0x8f, 0x10,
   0x00, 0x8c, 0x03, 0xe0, 0x01, 0x11, 0x00, 0xfc, 0x00, 0x38, 0x00, 0x11,
   0x00, 0x1e, 0x00, 0x07, 0x00, 0x12, 0x80, 0x03, 0xe0, 0x01, 0x00, 0x1f,
   0xc0, 0x01, 0x3c, 0x00, 0xe0, 0x0f, 0x60, 0x01, 0x07, 0x00, 0xfc, 0x01,
   0x20, 0xe1, 0x00, 0x80, 0x3f, 0x00, 0x10, 0x3d, 0x00, 0xf0, 0xc7, 0x1f,
   0x98, 0x07, 0x00, 0xfc, 0x63, 0x70, 0x88, 0x01, 0x80, 0xff, 0x1f, 0x40,
   0x0c, 0x02, 0xf0, 0x7f, 0x00, 0x40, 0x0e, 0x04, 0xfe, 0x0c, 0x00, 0x30,
   0x0e, 0xc4, 0x1f, 0x02, 0x00, 0x1c, 0x3e, 0xfc, 0x03, 0x00, 0x00, 0x06,
   0xe0, 0xff, 0x00, 0x00, 0x80, 0x01, 0x00, 0x0c, 0x00, 0x00, 0x60, 0x00,
   0x00, 0x08, 0x00, 0x00, 0x30, 0x00, 0x00, 0x08, 0x00, 0x00, 0x0c, 0x00,
   0x00, 0x08, 0x00, 0x00, 0x07, 0x00, 0x00, 0x18, 0x00, 0x80, 0x01, 0x00,
   0x00, 0x10, 0x00, 0xc0, 0x00, 0x00, 0x00, 0x30, 0x00, 0x40, 0x00, 0x00,
   0x00, 0x60, 0x00, 0x60, 0x00, 0x00, 0x00, 0xc0, 0x01, 0x20, 0x00, 0x00,
   0x00, 0x00, 0x0f, 0x10, 0x00, 0x00, 0x00, 0x00, 0xf8, 0x0f, 0x00, 0x00,
   0x00, 0x00, 0x00, 0x00, 0x00, 0x00, 0x00, 0x00, 0x00, 0x00, 0x00, 0x00,
   0x00, 0x00, 0x00, 0x00, 0x00, 0x00, 0x00, 0x00, 0x00, 0x00, 0x00, 0x00 };
