#define JoinBevel_width 16
#define JoinBevel_height 16
static unsigned char JoinBevel_bits[] = {
  0x00, 0x00, 0x00, 0x00, 0x00, 0x00, 0x00, 0x00, 0x00, 0x00, 0x80, 0x00,
  0x60, 0x01, 0x18, 0x02, 0x06, 0x04, 0x02, 0x08, 0x02, 0x10, 0x42, 0x20,
  0xc2, 0x40, 0x42, 0x81, 0x42, 0x02, 0x42, 0x04, };
