#define JoinMiter_width 16
#define JoinMiter_height 16
static unsigned char JoinMiter_bits[] = {
  0x06, 0x00, 0x0a, 0x00, 0x12, 0x00, 0x22, 0x00, 0x42, 0x00, 0x82, 0x00,
  0x02, 0x01, 0x02, 0x02, 0x02, 0x04, 0x02, 0x08, 0x02, 0x10, 0x42, 0x20,
  0xc2, 0x40, 0x42, 0x81, 0x42, 0x02, 0x42, 0x04, };
