/* Created with The GIMP - LINUX */
#define LayerNew_width 14
#define LayerNew_height 14
static unsigned char LayerNew_bits[] = {
   0x00, 0x00, 0x00, 0x00, 0xfc, 0x00, 0x84, 0x01, 0x84, 0x02, 0xb4, 0x07,
   0x04, 0x04, 0xf4, 0x05, 0x04, 0x04, 0xf4, 0x05, 0x04, 0x04, 0x04, 0x04,
   0xfc, 0x07, 0x00, 0x00 };
