#define TurnBL_width 16
#define TurnBL_height 16
static unsigned char TurnBL_bits[] = {
  0x30, 0x00, 0x78, 0x00, 0xfc, 0x00, 0xfe, 0x01, 0x30, 0x00, 0x70, 0x00,
  0x60, 0x00, 0xe0, 0x10, 0xc0, 0x31, 0x80, 0x77, 0x00, 0xff, 0x00, 0xfc,
  0x00, 0x70, 0x00, 0x30, 0x00, 0x10, 0x00, 0x00, };
