/* Created with The GIMP - LINUX */
#define MiniEyeOpen_width 12
#define MiniEyeOpen_height 12
static unsigned char MiniEyeOpen_bits[] = {
   0x00, 0x00, 0x00, 0x00, 0xf8, 0x01, 0xfc, 0x03, 0x4e, 0x07, 0xf7, 0x0e,
   0xd3, 0x0c, 0x66, 0x06, 0x0c, 0x03, 0xf8, 0x01, 0x00, 0x00, 0x00, 0x00 };
