/* Created with The GIMP - LINUX */
#define MiniOutlineOn_width 12
#define MiniOutlineOn_height 12
static unsigned char MiniOutlineOn_bits[] = {
   0x00, 0x00, 0x00, 0x00, 0xf8, 0x00, 0x8c, 0x01, 0x06, 0x03, 0x02, 0x02,
   0x02, 0x02, 0x02, 0x02, 0x06, 0x03, 0x8c, 0x01, 0xf8, 0x00, 0x00, 0x00 };
