/* Created with The GIMP - LINUX */
#define MiniEyeClosed_width 12
#define MiniEyeClosed_height 12
static unsigned char MiniEyeClosed_bits[] = {
   0x00, 0x00, 0x00, 0x00, 0x68, 0x01, 0x84, 0x02, 0x42, 0x05, 0x81, 0x0a,
   0x03, 0x0d, 0x0e, 0x07, 0xfc, 0x03, 0xf8, 0x01, 0x00, 0x00, 0x00, 0x00 };
