/* Created with The GIMP - LINUX */
#define MiniOutlineOff_width 12
#define MiniOutlineOff_height 12
static unsigned char MiniOutlineOff_bits[] = {
   0x00, 0x00, 0x00, 0x00, 0xf8, 0x00, 0xac, 0x01, 0x56, 0x03, 0xaa, 0x02,
   0x56, 0x03, 0xaa, 0x02, 0x56, 0x03, 0xac, 0x01, 0xf8, 0x00, 0x00, 0x00 };
