#define AlignRight_width 32
#define AlignRight_height 32
static char AlignRight_bits[] = {
 0x00,0x00,0x00,0x00,0x00,0x00,0x00,0x40,0x00,0x00,0x00,0x40,0x00,0xf0,0xff,
 0x7f,0x00,0x10,0x00,0x40,0x00,0x10,0x00,0x40,0x00,0x10,0x00,0x40,0x00,0x10,
 0x00,0x40,0x00,0x10,0x00,0x40,0x00,0x10,0x00,0x40,0x00,0x10,0x00,0x40,0x00,
 0x10,0x00,0x40,0x00,0xf0,0xff,0x7f,0x00,0x00,0x00,0x40,0x00,0x00,0x00,0x40,
 0x00,0x00,0x01,0x40,0x00,0xc0,0x06,0x40,0x00,0x30,0x18,0x40,0x00,0x0c,0x60,
 0x40,0x00,0x03,0x80,0x41,0xc0,0x00,0x00,0x46,0x30,0x00,0x00,0x58,0x0c,0x00,
 0x00,0x60,0x30,0x00,0x00,0x58,0xc0,0x00,0x00,0x46,0x00,0x03,0x80,0x41,0x00,
 0x0c,0x60,0x40,0x00,0x30,0x18,0x40,0x00,0xc0,0x06,0x40,0x00,0x00,0x01,0x40,
 0x00,0x00,0x00,0x40,0x00,0x00,0x00,0x00};
