#define CapProjecting_width 16
#define CapProjecting_height 16
static unsigned char CapProjecting_bits[] = {
  0x80, 0x00, 0x80, 0x00, 0x00, 0x00, 0xf8, 0x5f, 0x08, 0x00, 0x08, 0x00,
  0x08, 0x00, 0x8b, 0x5f, 0x08, 0x00, 0x08, 0x00, 0x08, 0x00, 0xf8, 0x5f,
  0x00, 0x00, 0x80, 0x00, 0x80, 0x00, 0x00, 0x00, };
