#define Center_width 16
#define Center_height 16
static unsigned char Center_bits[] = {
  0x00, 0x00, 0xc0, 0x07, 0x30, 0x18, 0x08, 0x20, 0x04, 0x40, 0x04, 0x40,
  0x02, 0x81, 0x02, 0x81, 0xc2, 0x87, 0x02, 0x81, 0x02, 0x81, 0x04, 0x40,
  0x04, 0x40, 0x08, 0x20, 0x30, 0x18, 0xc0, 0x07, };
