#define CurEdit_width 16
#define CurEdit_height 16
#define CurEdit_x_hot 1
#define CurEdit_y_hot 1
static unsigned char CurEdit_bits[] = {
  0x00, 0x00, 0x02, 0x00, 0x06, 0x00, 0x0e, 0x00, 0x1e, 0x00, 0x3e, 0x00,
  0x7e, 0x00, 0xfe, 0x00, 0xfe, 0x01, 0xfe, 0x03, 0xfe, 0x07, 0x1e, 0x00,
  0x0e, 0x00, 0x06, 0x00, 0x02, 0x00, 0x00, 0x00, };
