#define CurZoom_mask_width 16
#define CurZoom_mask_height 16
#define CurZoom_mask_x_hot 5
#define CurZoom_mask_y_hot 5
static unsigned char CurZoom_mask_bits[] = {
   0xfc, 0x01, 0xfe, 0x03, 0xff, 0x07, 0x8f, 0x07, 0x07, 0x07, 0x07, 0x07,
   0x07, 0x07, 0x8f, 0x0f, 0xfe, 0x1f, 0xfc, 0x3f, 0xf8, 0x7f, 0x80, 0xff,
   0x00, 0xff, 0x00, 0xfe, 0x00, 0xfc, 0x00, 0xf8};
