#define fill_gradient_width 24
#define fill_gradient_height 24
static char fill_gradient_bits[] = {
 0xff,0xff,0x56,0xff,0xbf,0xad,0xff,0xdb,0x2b,0xff,0xf7,0xaa,0xbf,0x5d,0x15,
 0xff,0xb7,0x4a,0x6f,0x6f,0x95,0xff,0x5b,0x25,0xb7,0x56,0x89,0xff,0xab,0x22,
 0xad,0x56,0x04,0xff,0xaa,0x22,0xab,0x15,0x09,0xde,0xaa,0x00,0x3b,0x05,0x12,
 0xd7,0xaa,0x00,0x2d,0x11,0x02,0x56,0x85,0x00,0x55,0x12,0x08,0xab,0x44,0x00,
 0x2a,0x01,0x02,0x4b,0x24,0x00,0x14,0x01,0x00,0x45,0x00,0x00};
