#define gradient_radial_width 24
#define gradient_radial_height 24
static char gradient_radial_bits[] = {
 0x00,0x00,0x00,0x00,0x49,0x00,0x40,0x24,0x01,0x10,0x49,0x00,0xa0,0xaa,0x02,
 0x88,0xaa,0x14,0x50,0xad,0x02,0xa8,0x76,0x15,0xd2,0xdd,0x42,0x50,0x7f,0x15,
 0xaa,0xdd,0x0a,0x50,0xff,0x25,0xea,0x5e,0x15,0x48,0xf7,0x0a,0x50,0x5d,0x25,
 0x54,0xef,0x0a,0xa0,0x94,0x00,0x48,0x6b,0x15,0x20,0x2a,0x01,0x08,0x49,0x04,
 0x40,0x24,0x01,0x00,0x01,0x00,0x00,0x44,0x00,0x00,0x00,0x00};
