/* Created with The GIMP */
#define LayerUp_width 14
#define LayerUp_height 14
static unsigned char LayerUp_bits[] = {
   0x00, 0x00, 0x00, 0x00, 0x00, 0x00, 0xc0, 0x00, 0xe0, 0x01, 0xf0, 0x03,
   0xf8, 0x07, 0xd8, 0x06, 0xc0, 0x00, 0xc0, 0x00, 0xc0, 0x00, 0xc0, 0x00,
   0x00, 0x00, 0x00, 0x00 };
