#define Portrait_width 28
#define Portrait_height 42
static char Portrait_bits[] = {
 0x00,0xfe,0x01,0x00,0x80,0x01,0x02,0x00,0x40,0x00,0x04,0x00,0x20,0x00,0x08,
 0x00,0xd0,0xf8,0x31,0x00,0x38,0x00,0x4a,0x00,0x0c,0x00,0x80,0x00,0x02,0x00,
 0x04,0x01,0x01,0x1f,0x06,0x01,0xc1,0xe0,0x05,0x02,0x31,0x00,0x04,0x02,0x19,
 0x00,0x08,0x02,0xf1,0x87,0x1f,0x02,0x11,0x00,0x20,0x04,0xd1,0x87,0x6f,0x04,
 0x11,0x4b,0xa3,0x04,0x12,0x03,0x23,0x04,0x1a,0x00,0x60,0x04,0x1a,0x00,0x60,
 0x04,0x1a,0x00,0x60,0x04,0x12,0x48,0x20,0x04,0x12,0x30,0x20,0x04,0x12,0x00,
 0x20,0x02,0x22,0x78,0x10,0x02,0x22,0xff,0x13,0x02,0x44,0x86,0x09,0x02,0x88,
 0xfc,0x04,0x02,0x08,0x79,0x06,0x02,0x10,0x03,0x05,0x02,0x20,0xcd,0x04,0x01,
 0x40,0x31,0x04,0x01,0x80,0x01,0x04,0x01,0x00,0x01,0x04,0x01,0x00,0x01,0x84,
 0x00,0x00,0x01,0x84,0x00,0x80,0x01,0x58,0x00,0x78,0x00,0xe0,0x00,0x06,0x70,
 0x00,0x01,0x08,0x00,0x80,0x00,0x30,0x00,0x60,0x00,0xc0,0x00,0x18,0x00,0x00,
 0xff,0x07,0x00};
