/* Created with The GIMP - LINUX */
#define MiniPrintOff_width 12
#define MiniPrintOff_height 12
static unsigned char MiniPrintOff_bits[] = {
   0x00, 0x00, 0x7c, 0x02, 0x04, 0x03, 0x84, 0x01, 0xc4, 0x00, 0x64, 0x02,
   0x30, 0x02, 0x18, 0x02, 0x0c, 0x02, 0x04, 0x02, 0xf0, 0x03, 0x00, 0x00 };
