/* Created with The GIMP - LINUX */
#define MiniLockOpen_width 12
#define MiniLockOpen_height 12
static unsigned char MiniLockOpen_bits[] = {
   0xf0, 0x00, 0xf8, 0x01, 0x98, 0x01, 0x18, 0x00, 0x18, 0x00, 0xfc, 0x03,
   0xbc, 0x03, 0x9c, 0x03, 0x9c, 0x03, 0xdc, 0x03, 0xfc, 0x03, 0x00, 0x00 };
