#define AlignCenterX_width 32
#define AlignCenterX_height 32
static char AlignCenterX_bits[] = {
 0x00,0x00,0x00,0x00,0x00,0x00,0x01,0x00,0x00,0x00,0x01,0x00,0x80,0xff,0xff,
 0x03,0x80,0x00,0x01,0x02,0x80,0x00,0x01,0x02,0x80,0x00,0x01,0x02,0x80,0x00,
 0x01,0x02,0x80,0x00,0x01,0x02,0x80,0x00,0x01,0x02,0x80,0x00,0x01,0x02,0x80,
 0x00,0x01,0x02,0x80,0xff,0xff,0x03,0x00,0x00,0x01,0x00,0x00,0x00,0x01,0x00,
 0x00,0x00,0x01,0x00,0x00,0xc0,0x07,0x00,0x00,0x30,0x19,0x00,0x00,0x0c,0x61,
 0x00,0x00,0x03,0x81,0x01,0xc0,0x00,0x01,0x06,0x30,0x00,0x01,0x18,0x0c,0x00,
 0x01,0x60,0x30,0x00,0x01,0x18,0xc0,0x00,0x01,0x06,0x00,0x03,0x81,0x01,0x00,
 0x0c,0x61,0x00,0x00,0x30,0x19,0x00,0x00,0xc0,0x07,0x00,0x00,0x00,0x01,0x00,
 0x00,0x00,0x01,0x00,0x00,0x00,0x00,0x00};
