#define ArrArrRight_width 10
#define ArrArrRight_height 10
static unsigned char ArrArrRight_bits[] = {
  0x22, 0x00, 0x77, 0x00, 0xee, 0x00, 0xdc, 0x01, 0xb8, 0x03, 0xb8, 0x03,
  0xdc, 0x01, 0xee, 0x00, 0x77, 0x00, 0x22, 0x00, };
