#define CapRound_width 16
#define CapRound_height 16
static unsigned char CapRound_bits[] = {
  0x80, 0x00, 0x80, 0x00, 0x00, 0x00, 0xe0, 0x5f, 0x10, 0x00, 0x08, 0x00,
  0x08, 0x00, 0x8b, 0x5f, 0x08, 0x00, 0x08, 0x00, 0x10, 0x00, 0xe0, 0x5f,
  0x00, 0x00, 0x80, 0x00, 0x80, 0x00, 0x00, 0x00, };
