#define CurDown_width 16
#define CurDown_height 16
#define CurDown_x_hot 8
#define CurDown_y_hot 8
static unsigned char CurDown_bits[] = {
  0x00, 0x00, 0x80, 0x01, 0x80, 0x01, 0x80, 0x01, 0x80, 0x01, 0x80, 0x01,
  0x80, 0x01, 0x80, 0x01, 0x80, 0x01, 0x80, 0x01, 0xb0, 0x0d, 0xe0, 0x07,
  0xc0, 0x03, 0x80, 0x01, 0x00, 0x00, 0x00, 0x00, };
