#define CurUpDown_mask_width 16
#define CurUpDown_mask_height 16
static unsigned char CurUpDown_mask_bits[] = {
  0xc0, 0x03, 0xe0, 0x07, 0xf0, 0x0f, 0xf8, 0x1f, 0xf8, 0x1f, 0xf8, 0x1f,
  0xc0, 0x03, 0xc0, 0x03, 0xc0, 0x03, 0xf8, 0x1f, 0xf8, 0x1f, 0xf8, 0x1f,
  0xf0, 0x0f, 0xe0, 0x07, 0xc0, 0x03, 0x00, 0x00, };
