#define JoinRound_width 16
#define JoinRound_height 16
static unsigned char JoinRound_bits[] = {
  0x00, 0x00, 0x00, 0x00, 0x00, 0x00, 0x00, 0x00, 0x78, 0x00, 0x84, 0x00,
  0x04, 0x01, 0x02, 0x02, 0x02, 0x04, 0x02, 0x08, 0x02, 0x10, 0x42, 0x20,
  0xc2, 0x40, 0x42, 0x81, 0x42, 0x02, 0x42, 0x04, };
