#define ShearUD_width 16
#define ShearUD_height 16
static unsigned char ShearUD_bits[] = {
  0x00, 0x00, 0x40, 0x00, 0x60, 0x06, 0x70, 0x06, 0x78, 0x06, 0x7c, 0x06,
  0x60, 0x06, 0x60, 0x06, 0x60, 0x06, 0x60, 0x06, 0x60, 0x3e, 0x60, 0x1e,
  0x60, 0x0e, 0x60, 0x06, 0x00, 0x02, 0x00, 0x00, };
