/* XPM */
static char * skencil_xpm[] = {
"32 28 524 2",
"  	c None",
". 	c #636259",
"+ 	c #746747",
"@ 	c #544E3F",
"# 	c #595D5E",
"$ 	c #4E4B3E",
"% 	c #A28F58",
"& 	c #FAC73F",
"* 	c #EDBC39",
"= 	c #766333",
"- 	c #5F5B52",
"; 	c #5C5952",
"> 	c #9A8F6A",
", 	c #E9C24D",
"' 	c #C4A23B",
") 	c #615B49",
"! 	c #424547",
"~ 	c #DCC477",
"{ 	c #FECD41",
"] 	c #FECB3E",
"^ 	c #93762C",
"/ 	c #5C5D5C",
"( 	c #615F53",
"_ 	c #DCBB5A",
": 	c #CAA339",
"< 	c #54514B",
"[ 	c #535659",
"} 	c #C5B783",
"| 	c #FED451",
"1 	c #FCD149",
"2 	c #796B40",
"3 	c #56554E",
"4 	c #F2D77A",
"5 	c #FFCF44",
"6 	c #FECE42",
"7 	c #846C2D",
"8 	c #746F5A",
"9 	c #D0AE51",
"0 	c #95762B",
"a 	c #615F57",
"b 	c #78735D",
"c 	c #FBD86B",
"d 	c #EABE41",
"e 	c #494237",
"f 	c #4D5050",
"g 	c #DCCC90",
"h 	c #FED653",
"i 	c #FCD34E",
"j 	c #756841",
"k 	c #6B6756",
"l 	c #F9DA71",
"m 	c #FFD248",
"n 	c #FED046",
"o 	c #746335",
"p 	c #61656A",
"q 	c #B8AD82",
"r 	c #E5BC4D",
"s 	c #9B7C2A",
"t 	c #2E302B",
"u 	c #53371F",
"v 	c #4C3626",
"w 	c #968E6F",
"x 	c #FCD96D",
"y 	c #EDC343",
"z 	c #413A29",
"A 	c #545652",
"B 	c #EBD993",
"C 	c #FED854",
"D 	c #FAD653",
"E 	c #645939",
"F 	c #7E775B",
"G 	c #FDDA64",
"H 	c #FED44C",
"I 	c #F8CE49",
"J 	c #63583C",
"K 	c #3C3C3D",
"L 	c #555C55",
"M 	c #274A62",
"N 	c #20659D",
"O 	c #275176",
"P 	c #CA6D07",
"Q 	c #CF6F08",
"R 	c #58493F",
"S 	c #AAA17C",
"T 	c #FBDA6E",
"U 	c #EFC646",
"V 	c #403925",
"W 	c #55564E",
"X 	c #F2DE91",
"Y 	c #FFDA56",
"Z 	c #F8D757",
"` 	c #413A24",
" .	c #A79C72",
"..	c #FAD75A",
"+.	c #D5B547",
"@.	c #847539",
"#.	c #1D3648",
"$.	c #1D5989",
"%.	c #2E7BBC",
"&.	c #408DCF",
"*.	c #5399D5",
"=.	c #496B8B",
"-.	c #CD7406",
";.	c #F68902",
">.	c #8A5216",
",.	c #B5AB83",
"'.	c #FCDB70",
").	c #F1C948",
"!.	c #4A4431",
"~.	c #636154",
"{.	c #F8E28A",
"].	c #FEDD5A",
"^.	c #F5D65A",
"/.	c #231E10",
"(.	c #7F795B",
"_.	c #525947",
":.	c #265171",
"<.	c #2970AB",
"[.	c #3B89C9",
"}.	c #4D96D4",
"|.	c #60A3DA",
"1.	c #74AFE0",
"2.	c #88BDE7",
"3.	c #688195",
"4.	c #CB7406",
"5.	c #C36F06",
"6.	c #D17308",
"7.	c #634D3C",
"8.	c #B6AC84",
"9.	c #FCDB71",
"0.	c #F5CC4A",
"a.	c #534F3C",
"b.	c #706C5B",
"c.	c #F0D97D",
"d.	c #C5AE4E",
"e.	c #6F6C43",
"f.	c #173751",
"g.	c #236297",
"h.	c #3682C2",
"i.	c #4893D1",
"j.	c #5A9FD8",
"k.	c #6EACDF",
"l.	c #82BAE6",
"m.	c #92C4E7",
"n.	c #8CB5CF",
"o.	c #698A9E",
"p.	c #3F5D6F",
"q.	c #9F5C0D",
"r.	c #8F4E08",
"s.	c #B35E07",
"t.	c #8D4E13",
"u.	c #B4A982",
"v.	c #FCDC71",
"w.	c #F5CC4B",
"x.	c #57513F",
"y.	c #3C3F3B",
"z.	c #435456",
"A.	c #24567F",
"B.	c #3079B6",
"C.	c #438FD0",
"D.	c #569CD6",
"E.	c #69A9DD",
"F.	c #7CB6E4",
"G.	c #8FC2E8",
"H.	c #94C0DD",
"I.	c #7597AB",
"J.	c #507389",
"K.	c #467F9F",
"L.	c #4F9FCD",
"M.	c #51AADE",
"N.	c #444B4A",
"O.	c #DA7207",
"P.	c #DE7005",
"Q.	c #A5550D",
"R.	c #A49A77",
"S.	c #B09C5A",
"T.	c #5C593A",
"U.	c #1E4565",
"V.	c #2A6DA6",
"W.	c #3E8BCC",
"X.	c #5198D5",
"Y.	c #64A4DB",
"Z.	c #77B2E2",
"`.	c #8BC0E8",
" +	c #98C7E6",
".+	c #7EA1B7",
"++	c #557386",
"@+	c #42738F",
"#+	c #4994BF",
"$+	c #51ADE2",
"%+	c #49A9E2",
"&+	c #42A3DE",
"*+	c #3A9DDB",
"=+	c #2C7BAC",
"-+	c #8D4B10",
";+	c #F57602",
">+	c #A6530F",
",+	c #343E49",
"'+	c #1F3A51",
")+	c #255F90",
"!+	c #3A86C5",
"~+	c #4D95D3",
"{+	c #60A2D9",
"]+	c #73AFE0",
"^+	c #86BDE7",
"/+	c #97C7EA",
"(+	c #89AFC7",
"_+	c #5B798A",
":+	c #3E6780",
"<+	c #4286AD",
"[+	c #4EAADE",
"}+	c #48A8E1",
"|+	c #41A2DE",
"1+	c #399DDB",
"2+	c #3297D7",
"3+	c #2A92D4",
"4+	c #228DD2",
"5+	c #1B87CD",
"6+	c #274154",
"7+	c #D06109",
"8+	c #9E4D12",
"9+	c #373838",
"0+	c #224E74",
"a+	c #357BB7",
"b+	c #4891D0",
"c+	c #5B9ED7",
"d+	c #6DABDF",
"e+	c #81B9E5",
"f+	c #94C6EA",
"g+	c #8FB9D3",
"h+	c #69879A",
"i+	c #43677D",
"j+	c #3C789B",
"k+	c #4BA1D4",
"l+	c #47A7DF",
"m+	c #40A2DE",
"n+	c #399CDB",
"o+	c #3197D7",
"p+	c #2992D4",
"q+	c #228CD1",
"r+	c #1988CE",
"s+	c #1281C8",
"t+	c #0C6FAF",
"u+	c #084C7C",
"v+	c #072A4F",
"w+	c #1B1E2E",
"x+	c #332A29",
"y+	c #726538",
"z+	c #B1860E",
"A+	c #385973",
"B+	c #69A8DC",
"C+	c #7CB5E3",
"D+	c #8FC3E9",
"E+	c #95C1DF",
"F+	c #7697AB",
"G+	c #4C6C80",
"H+	c #396E8E",
"I+	c #4494C3",
"J+	c #46A5DC",
"K+	c #3FA1DD",
"L+	c #389CDA",
"M+	c #3196D7",
"N+	c #2891D4",
"O+	c #218CD1",
"P+	c #1987CD",
"Q+	c #1181C9",
"R+	c #0B73B4",
"S+	c #085387",
"T+	c #06345E",
"U+	c #0C294E",
"V+	c #21395C",
"W+	c #4B5B73",
"X+	c #C9A70F",
"Y+	c #ECB808",
"Z+	c #596A70",
"`+	c #97C6E6",
" @	c #83A8BE",
".@	c #567588",
"+@	c #3B6883",
"@@	c #3D86B1",
"#@	c #45A0D8",
"$@	c #389BDA",
"%@	c #3096D7",
"&@	c #208CD0",
"*@	c #1887CD",
"=@	c #0F81CA",
"-@	c #0A76BB",
";@	c #075991",
">@	c #063863",
",@	c #07264C",
"'@	c #1B3256",
")@	c #455671",
"!@	c #726E67",
"~@	c #6C6861",
"{@	c #A69721",
"]@	c #FCD603",
"^@	c #96790B",
"/@	c #485C68",
"(@	c #3F657D",
"_@	c #38789F",
":@	c #429AD0",
"<@	c #3FA0DC",
"[@	c #379BDA",
"}@	c #2F95D7",
"|@	c #2890D4",
"1@	c #208BD1",
"2@	c #1787CD",
"3@	c #1081CA",
"4@	c #0979C1",
"5@	c #065F9B",
"6@	c #063D69",
"7@	c #082950",
"8@	c #1B2E43",
"9@	c #5F5C40",
"0@	c #594E2F",
"a@	c #685D49",
"b@	c #957326",
"c@	c #CA9520",
"d@	c #CE961C",
"e@	c #AB7B1A",
"f@	c #68532C",
"g@	c #90813B",
"h@	c #F3D205",
"i@	c #F6CD03",
"j@	c #7D610A",
"k@	c #314548",
"l@	c #3B93CA",
"m@	c #369AD9",
"n@	c #2E95D6",
"o@	c #2790D3",
"p@	c #1F8BD0",
"q@	c #1686CD",
"r@	c #0E81CA",
"s@	c #097BC5",
"t@	c #0665A5",
"u@	c #054272",
"v@	c #062A53",
"w@	c #122743",
"x@	c #525444",
"y@	c #786732",
"z@	c #7C6527",
"A@	c #806C25",
"B@	c #6C5F22",
"C@	c #564C2A",
"D@	c #7C632B",
"E@	c #DEA727",
"F@	c #FEBC24",
"G@	c #FFB920",
"H@	c #FFB71C",
"I@	c #FEB418",
"J@	c #E7A218",
"K@	c #52483F",
"L@	c #68550E",
"M@	c #F4C404",
"N@	c #FFC701",
"O@	c #FEBC02",
"P@	c #DE9B08",
"Q@	c #3D504F",
"R@	c #1E88CB",
"S@	c #1585CD",
"T@	c #0D80C9",
"U@	c #087BC6",
"V@	c #0569AB",
"W@	c #05497C",
"X@	c #062E57",
"Y@	c #102542",
"Z@	c #464B44",
"`@	c #998037",
" #	c #CBA53A",
".#	c #98802B",
"+#	c #AE9B28",
"@#	c #E7D031",
"##	c #F8DE31",
"$#	c #FADA30",
"%#	c #F9C32D",
"&#	c #FDBE2A",
"*#	c #FFBC25",
"=#	c #FEBA22",
"-#	c #FEB51F",
";#	c #FCA91F",
">#	c #EF9822",
",#	c #AA6B23",
"'#	c #6C6661",
")#	c #323232",
"!#	c #060402",
"~#	c #CD990B",
"{#	c #FEB902",
"]#	c #FEB001",
"^#	c #FCA502",
"/#	c #885F18",
"(#	c #086DAF",
"_#	c #056CB2",
":#	c #055088",
"<#	c #06335E",
"[#	c #0E2746",
"}#	c #3C4241",
"|#	c #887336",
"1#	c #D6AC39",
"2#	c #F8C53A",
"3#	c #C5AB30",
"4#	c #F0D930",
"5#	c #FAE12F",
"6#	c #FBDA2F",
"7#	c #FDC52C",
"8#	c #FFBF29",
"9#	c #FFBD26",
"0#	c #FDB524",
"a#	c #FBA524",
"b#	c #EF9126",
"c#	c #A36322",
"d#	c #5D4530",
"e#	c #393937",
"f#	c #776236",
"g#	c #93702A",
"h#	c #AA7619",
"i#	c #C07B0E",
"j#	c #64400F",
"k#	c #082945",
"l#	c #102846",
"m#	c #30393F",
"n#	c #786634",
"o#	c #C99E31",
"p#	c #F3BD33",
"q#	c #FEC635",
"r#	c #FFC635",
"s#	c #FCC734",
"t#	c #F9DC31",
"u#	c #FAE02F",
"v#	c #FADF30",
"w#	c #FCD52F",
"x#	c #FEC42C",
"y#	c #FEBF29",
"z#	c #FEB927",
"A#	c #FBA725",
"B#	c #F69527",
"C#	c #C17324",
"D#	c #6C4D30",
"E#	c #73716E",
"F#	c #6D6345",
"G#	c #CB9D2F",
"H#	c #EEB42A",
"I#	c #FEC12D",
"J#	c #FFC22E",
"K#	c #FFC22F",
"L#	c #FFC330",
"M#	c #FEC430",
"N#	c #FDC72F",
"O#	c #FDCA2E",
"P#	c #FEC62C",
"Q#	c #FEC02A",
"R#	c #FEBD28",
"S#	c #FCB126",
"T#	c #F99A26",
"U#	c #DF8426",
"V#	c #835427",
"W#	c #625750",
"X#	c #907334",
"Y#	c #FEBC26",
"Z#	c #FFBE28",
"`#	c #FFC02B",
" $	c #FFC12C",
".$	c #FFBE27",
"+$	c #FFBB26",
"@$	c #FBA826",
"#$	c #F39127",
"$$	c #AA6623",
"%$	c #5A4431",
"&$	c #86692D",
"*$	c #FEB920",
"=$	c #FFBA21",
"-$	c #FEBB23",
";$	c #FFBC24",
">$	c #FFBD25",
",$	c #FEBD27",
"'$	c #FFBD27",
")$	c #FEB823",
"!$	c #FAA126",
"~$	c #D37E25",
"{$	c #704C2A",
"]$	c #68593D",
"^$	c #E7A71D",
"/$	c #FFB71D",
"($	c #FEB81F",
"_$	c #FFBB22",
":$	c #FEB720",
"<$	c #FB9E25",
"[$	c #C27324",
"}$	c #4C3D32",
"|$	c #816326",
"1$	c #F1AD1A",
"2$	c #FEB61A",
"3$	c #FFB61B",
"4$	c #FEB71D",
"5$	c #FEB61C",
"6$	c #FAA223",
"7$	c #F18E27",
"8$	c #694B2F",
"9$	c #765B27",
"0$	c #DF9F19",
"a$	c #FCB317",
"b$	c #FFB419",
"c$	c #FEB519",
"d$	c #FFB519",
"e$	c #FEB518",
"f$	c #FCAB1D",
"g$	c #F99426",
"h$	c #B66D23",
"i$	c #695D49",
"j$	c #8B661D",
"k$	c #CD9118",
"l$	c #F1AA16",
"m$	c #F9AE16",
"n$	c #FBAF15",
"o$	c #FBAE16",
"p$	c #F49523",
"q$	c #D98127",
"r$	c #654C35",
"s$	c #595655",
"t$	c #5A4F3E",
"u$	c #705D40",
"v$	c #6D5831",
"w$	c #6F5936",
"x$	c #6B5542",
"y$	c #584D44",
"                                  . + @                         ",
"                        # $       % & * =                       ",
"                - ;     > , ' ) ! ~ { ] ^     /                 ",
"              ( _ : < [ } | 1 2 3 4 5 6 7   8 9 0 a             ",
"              b c d e f g h i j k l m n o p q r s t u v         ",
"              w x y z A B C D E F G H I J K L M N O P Q R       ",
"              S T U V W X Y Z `  ...+.@.#.$.%.&.*.=.-.;.>.      ",
"              ,.'.).!.~.{.].^./.(._.:.<.[.}.|.1.2.3.4.5.6.7.    ",
"              8.9.0.a.b.c.d.e.f.g.h.i.j.k.l.m.n.o.p.q.r.s.t.    ",
"              u.v.w.x.y.z.A.B.C.D.E.F.G.H.I.J.K.L.M.N.O.P.Q.    ",
"              R.S.T.U.V.W.X.Y.Z.`. +.+++@+#+$+%+&+*+=+-+;+>+    ",
"            ,+'+)+!+~+{+]+^+/+(+_+:+<+[+}+|+1+2+3+4+5+6+7+8+    ",
"        9+0+a+b+c+d+e+f+g+h+i+j+k+l+m+n+o+p+q+r+s+t+u+v+w+x+    ",
"      y+z+A+B+C+D+E+F+G+H+I+J+K+L+M+N+O+P+Q+R+S+T+U+V+W+        ",
"      X+Y+Z+`+ @.@+@@@#@K+$@%@N+&@*@=@-@;@>@,@'@)@    !@~@      ",
"    {@]@^@/@(@_@:@<@[@}@|@1@2@3@4@5@6@7@8@9@0@    a@b@c@d@e@f@  ",
"  g@h@i@j@k@l@m@n@o@p@q@r@s@t@u@v@w@x@y@z@A@B@C@D@E@F@G@H@I@J@K@",
"  L@M@N@O@P@Q@R@S@T@U@V@W@X@Y@Z@`@ #.#+#@###$#%#&#*#=#-#;#>#,#'#",
")#!#~#{#]#^#/#(#_#:#<#[#}#|#1#2#2#3#4#5#5#6#7#8#9#0#a#b#c#d#    ",
"  e#f#g#h#i#j#k#l#m#n#o#p#q#r#r#s#t#u#v#w#x#y#z#A#B#C#D#        ",
"            E#F#G#H#I#J#K#L#M#L#L#N#O#P#Q#R#S#T#U#V#W#          ",
"              X#Y#9#Z#8#`#`# $ $`#`#8#.$+$@$#$$$%$              ",
"              &$*$=$-$;$>$9#,$,$'$*#F@)$!$~${$                  ",
"              ]$^$/$($*$=$=$_$_$=$=$:$<$[$}$                    ",
"                |$1$2$3$H@/$/$/$4$5$6$7$8$                      ",
"                  9$0$a$I@b$c$d$e$f$g$h$                        ",
"                    i$j$k$l$m$n$o$p$q$r$                        ",
"                        s$t$u$v$w$x$y$                          "};
